<svg xmlns="http://www.w3.org/2000/svg" viewBox="0 0 156.3 29.91"><defs><style>.cls-1{fill:#52ae30;}.cls-2,.cls-3{fill:#006648;}.cls-3{fill-rule:evenodd;}</style></defs><title>OPT logo RGB - COLOR</title><g id="Layer_2" data-name="Layer 2"><g id="elementi"><path class="cls-1" d="M79.75,22.67c.19-.86,1.42-6,2.68-11.67,1.08-4.9,1.83-8,2.1-10.25l.22-.2L87.87,0l.15.2-.8,3.17L85.9,8.88a7.93,7.93,0,0,1,4.18-1.29c2.83,0,5.21,1.92,5.21,5.53a10.22,10.22,0,0,1-2.38,6.41c-2.58,2.94-5.75,3.14-9.44,3.29H81.89l-2,0Zm3.49-2.09a9.67,9.67,0,0,0,5.86-1.23,7.48,7.48,0,0,0,3.12-5.83c0-2.61-1.57-3.61-3.4-3.61a6.18,6.18,0,0,0-3.41,1.2S83.41,19.88,83.24,20.58Z"/><path class="cls-1" d="M110.63,13.72c-1,4.4-1.2,5.49-1.77,8.9l-.21.2-2.68.05-.15-.2.2-1.14A6.07,6.07,0,0,1,101.84,23c-2.92,0-5.29-2.06-5.29-5.64a10.4,10.4,0,0,1,2.29-6.15c2.66-3.12,6.35-3.29,9-3.29l3.94,0,.15.22Zm-2.12-3.64-1.29,0a7.9,7.9,0,0,0-4.49,1.2,7.71,7.71,0,0,0-3.06,5.9A3.33,3.33,0,0,0,103,20.73a5,5,0,0,0,3.43-1.41Z"/><path class="cls-1" d="M155,13.72c-1,4.4-1.2,5.49-1.77,8.9l-.2.2-2.69.05-.14-.2.2-1.14A6.11,6.11,0,0,1,146.23,23c-2.92,0-5.3-2.06-5.3-5.64a10.4,10.4,0,0,1,2.29-6.15c2.66-3.12,6.36-3.29,9-3.29l3.95,0,.14.22Zm-2.11-3.64-1.29,0a7.91,7.91,0,0,0-4.5,1.2,7.71,7.71,0,0,0-3.06,5.9,3.33,3.33,0,0,0,3.35,3.58,5,5,0,0,0,3.43-1.41Z"/><path class="cls-1" d="M124.8,22.65l-.23.17-2.92.08-.11-.2c.42-1.93,2.18-8.38,2.2-10.39,0-1.71-1.06-2.29-2.4-2.29a6.18,6.18,0,0,0-3.81,1.52c-1.06,4.81-1.4,6.33-2.31,11.11l-.21.17-2.91.08-.15-.2s.87-3.5,1.66-7.14c.61-2.85,1.11-5.2,1.35-7.17l.2-.2a30.42,30.42,0,0,0,3-.51l.14.2-.4,1.46a8.16,8.16,0,0,1,4.93-1.75c.94,0,4,.26,4,3.72C126.89,13.38,125.08,20.62,124.8,22.65Z"/><path class="cls-1" d="M135.74,14.11l4.43,8.44-.17.23-3.17.09-.23-.17c-.75-2-4-8.33-4-8.33-.83,3.63-1,4.49-1.72,8.27l-.2.17-2.89.06-.11-.17s1.52-6.35,2.84-12.23c.62-2.74,1.58-7.09,2-9.73l.2-.17,3.12-.51.17.2c-.57,2-3.29,13.71-3.29,13.71,2.06-1.8,5.47-5.38,5.93-5.87l.31-.17h3.29l.09.26c-.81.64-2.32,2-2.86,2.48Z"/><path class="cls-2" d="M51.2,15.25c-1.23,7-5.59,7.91-9.29,7.91s-7-2.51-6.06-7.95C36.59,11,39.11,7,45.25,7.33,49.52,7.54,52,10.47,51.2,15.25Zm-6.68-4.88c-1.35,0-2.87.68-3.75,4.85-1,4.64,1,4.94,1.92,4.94s2.68-.47,3.59-4.91C46.92,12.14,46.41,10.37,44.52,10.37Z"/><path class="cls-2" d="M60.52,22.56l-.23.23a17.24,17.24,0,0,1-2.58.31c-2.16,0-5.33-.32-4-5.77.91-3.69,1.56-6.45,1.56-6.45l-2,.06-.18-.23.83-2.89.2-.14H56L56.85,4l.2-.2c2.15-.49,2.72-.63,4.7-1.21l.17.17-1.26,5,2.92-.05.11.2c-.4,1.2-.51,1.51-.88,2.86l-.23.2-2.64-.06s-.53,2.22-1.28,5.32c-.81,3.34-.38,3.17.43,3.49a3.36,3.36,0,0,0,2.11-.25l.17.14Z"/><path class="cls-2" d="M70.87,8.74a6.42,6.42,0,0,1,3.84-1.38c2.86,0,4.78,2.15,4.78,5.78a10.23,10.23,0,0,1-2.21,6.3c-2.83,3.46-6.41,3.43-9.44,3.43l-1.63,6.84-.2.15c-.66,0-1.29,0-2,0-1,0-1.83.06-2.89.08l-.14-.2s1-3,2.26-8.24C64.61,16,65.84,9.58,66,8.28l.2-.2L71,7.28l.18.2Zm-2.32,11a5.27,5.27,0,0,0,3.84-1.12,7.1,7.1,0,0,0,2.17-5.15c0-2.4-1.54-2.69-2.11-2.69a3.68,3.68,0,0,0-2.06.83Z"/><path class="cls-3" d="M0,14.14A14.13,14.13,0,0,1,14.12,0V5.11a9,9,0,1,0,9,9h5.11A14.14,14.14,0,1,1,0,14.14Z"/><path class="cls-1" d="M7.9,14.14a6.27,6.27,0,1,1,6.27,6.27A6.27,6.27,0,0,1,7.9,14.14Z"/><path class="cls-2" d="M18.52,6.19a3.6,3.6,0,1,1,3.59,3.6A3.59,3.59,0,0,1,18.52,6.19Z"/></g></g></svg>